<svg xmlns="http://www.w3.org/2000/svg" viewBox="0 0 240 240" role="img" aria-labelledby="title"><title id="title">Profile avatar</title><defs><linearGradient id="bg" x1="0" y1="0" x2="1" y2="1"><stop offset="0%" stop-color="#1d4ed8"/><stop offset="100%" stop-color="#0ea5e9"/></linearGradient><linearGradient id="hair" x1="0" y1="0" x2="1" y2="1"><stop offset="0%" stop-color="#0f172a"/><stop offset="100%" stop-color="#0ea5e9"/></linearGradient></defs><rect width="240" height="240" rx="32" fill="url(#bg)"/><circle cx="120" cy="100" r="60" fill="#f8fafc"/><ellipse cx="120" cy="188" rx="67" ry="40" fill="#e2e8f0"/><path d="M68 118c0-42 48-42 52-42s52 0 52 42v26c0 18-20 34-52 34s-52-16-52-34v-26z" fill="#fff"/><path d="M120 58c-20 0-36 16-36 36v10h72v-10c0-20-16-36-36-36z" fill="url(#hair)"/><ellipse cx="120" cy="118" rx="14" ry="18" fill="#0f172a" opacity="0.12"/><path d="M94 134c0 12 26 20 26 20s26-8 26-20" fill="#cbd5e1" opacity="0.7"/><circle cx="102" cy="106" r="8" fill="#0f172a"/><circle cx="138" cy="106" r="8" fill="#0f172a"/><path d="M108 154c8 6 16 6 24 0" stroke="#0f172a" stroke-width="6" stroke-linecap="round" fill="none"/></svg>
